<svg width="64" height="64" viewBox="0 0 64 64" fill="none" xmlns="http://www.w3.org/2000/svg">
<path d="M5.33337 16C5.33337 16 9.33337 10.6667 18.6667 10.6667C28 10.6667 32 16 32 16V53.3333C32 53.3333 28 50.6667 18.6667 50.6667C9.33337 50.6667 5.33337 53.3333 5.33337 53.3333V16Z" stroke="black" stroke-width="2" stroke-linecap="round" stroke-linejoin="round"/>
<path d="M32 16C32 16 36 10.6667 45.3333 10.6667C54.6667 10.6667 58.6667 16 58.6667 16V53.3333C58.6667 53.3333 54.6667 50.6667 45.3333 50.6667C36 50.6667 32 53.3333 32 53.3333V16Z" stroke="black" stroke-width="2" stroke-linecap="round" stroke-linejoin="round"/>
<path d="M9.11401 20.1705C9.11401 18.4994 10.2743 19.6808 11.2163 19.2621C12.0369 18.8974 12.6082 19.3898 13.1499 18.5614C13.5115 18.0083 13.958 18.8487 14.3697 19.0545C14.7353 19.2373 15.1354 19.2362 15.5376 19.2362C15.7341 19.2362 15.8726 19.1194 16.0632 19.1194C16.2971 19.1194 16.4528 19.2658 16.7055 19.2297C16.9955 19.1883 17.5632 18.4754 17.7567 18.5614C18.2613 18.7857 18.5107 19.1194 19.0998 19.1194C19.5768 19.1194 19.9683 18.8608 20.4429 18.8858C20.8703 18.9083 21.2212 19.353 21.6692 19.353C22.0938 19.353 22.5085 19.0979 22.8956 19.1194C23.3393 19.144 23.6739 19.6166 24.1154 19.6969C24.5372 19.7736 25.0711 19.7451 25.465 19.911C25.7554 20.0332 26.2831 20.3329 26.5745 20.3976C26.9113 20.4724 27.114 20.8759 27.4505 20.9881" stroke="black" stroke-linecap="round" stroke-linejoin="round"/>
<path d="M9.11401 25.7766C9.13147 25.0607 9.37786 25.0214 9.63958 24.5503C9.84747 24.1761 9.79933 23.5675 10.3403 23.4472C10.7296 23.3607 11.053 23.8688 11.5083 23.6159C11.92 23.3872 12.211 23.324 12.6762 23.324C13.1128 23.324 13.3576 23.7495 13.8117 23.4407C14.2167 23.1653 14.4396 22.9736 14.9537 22.9736C15.3541 22.9736 15.616 23.2072 16.0048 23.2072C16.4561 23.2072 16.8534 23.0904 17.2895 23.0904C17.7008 23.0904 17.9042 23.3502 18.2822 23.4343C18.7688 23.5424 19.0914 23.5399 19.567 23.4343C19.9651 23.3458 20.3157 23.0904 20.7349 23.0904C21.1032 23.0904 21.5038 23.2072 21.9028 23.2072C22.494 23.2072 23.0698 23.2542 23.6223 23.4667C24.0527 23.6323 24.4433 24.025 24.881 24.2323C25.3741 24.4659 25.7632 24.4397 26.1658 24.8423C26.3893 25.0658 26.7176 25.4101 26.9833 25.543" stroke="black" stroke-linecap="round" stroke-linejoin="round"/>
<path d="M9.2308 31.4994C9.2308 31.146 9.19086 29.7822 9.81476 29.7476C10.549 29.7068 10.4759 29.2819 10.8919 28.6964C11.777 27.4507 12.0167 27.8811 13.2537 28.106C13.9895 28.2398 14.736 27.6273 15.4208 27.9697C16.2421 28.3803 16.7291 28.3529 17.6399 28.2228C18.5482 28.093 18.7808 28.318 19.567 28.7548C20.3559 29.1931 21.3338 28.6356 22.1688 28.9041C22.5112 29.0141 22.894 29.2413 23.2459 29.2804C23.6124 29.3211 23.8885 29.7476 24.2387 29.7476C24.9729 29.7476 25.6459 29.8964 26.2825 30.2147" stroke="black" stroke-linecap="round" stroke-linejoin="round"/>
<path d="M28.9688 20.8713C29.0141 20.9875 29.2023 21.7998 29.2023 21.3384" stroke="black" stroke-linecap="round" stroke-linejoin="round"/>
<path d="M29.5528 24.8423C29.5444 25.1784 29.436 25.4506 29.436 25.7766" stroke="black" stroke-linecap="round" stroke-linejoin="round"/>
<path d="M28.3848 29.6307C28.4475 29.9517 28.6184 30.3769 28.6184 30.6819" stroke="black" stroke-linecap="round" stroke-linejoin="round"/>
<path d="M47.422 17.6011C47.422 19.1412 47.2351 20.8342 47.6297 22.3247C47.7702 22.8554 47.6058 23.3239 48.2136 23.3239C49.1745 23.3239 50.1347 23.593 51.0815 23.7652C51.9239 23.9183 52.596 23.601 53.3785 23.5575C54.5069 23.4948 53.4953 20.1324 53.4953 19.5282C53.4953 18.7423 53.3249 17.7398 53.1514 16.9587C53.0724 16.6033 53.1869 16.0828 52.7361 16.0828C52.0916 16.0828 51.4471 16.0828 50.8025 16.0828C49.8349 16.0828 48.9549 16.0172 48.0125 15.7973C47.4296 15.6613 46.7532 15.6831 46.2022 15.4469C46.0137 15.3661 46.4074 16.052 46.4293 16.0958C46.6321 16.5014 46.8813 16.8052 47.1236 17.1858C47.3389 17.5243 47.3052 17.899 47.3052 18.3019" stroke="black" stroke-linecap="round" stroke-linejoin="round"/>
<path d="M47.3052 16.1996C47.8433 16.8825 48.5273 17.4063 49.1869 17.9645C49.8182 18.4986 50.3464 19.1239 50.9258 19.7034C51.6281 20.4057 52.3307 21.1082 53.0281 21.8056" stroke="black" stroke-linecap="round" stroke-linejoin="round"/>
<path d="M52.6777 16.7835C51.893 17.4188 51.0569 18.1708 50.3419 18.8858C49.8979 19.3298 49.5758 19.8352 49.1739 20.2873C48.722 20.7958 48.3564 21.9628 48.3564 22.6232" stroke="black" stroke-linecap="round" stroke-linejoin="round"/>
<path d="M34.8084 18.8858C35.1415 18.4594 35.8549 17.8815 36.4695 18.0942C36.9281 18.253 37.2767 18.699 37.7542 18.8858C38.3604 19.123 38.9525 19.2362 39.5969 19.2362C39.8453 19.2362 41.2079 19.296 41.232 18.8858C41.2598 18.4143 41.6992 18.0384 41.6992 18.769" stroke="black" stroke-linecap="round" stroke-linejoin="round"/>
<path d="M36.0932 23.5575C35.2033 21.2773 37.7436 23.3678 38.8054 23.0644C40.0264 22.7155 41.4045 23.0625 42.5168 22.5064" stroke="black" stroke-linecap="round" stroke-linejoin="round"/>
<path d="M35.8596 28.4628C36.5506 27.9602 36.4114 28.4628 37.0859 28.4628C37.4694 28.4628 37.7634 28.1124 38.1435 28.1124C38.9492 28.1124 39.8123 28.2292 40.6481 28.2292C41.4072 28.2292 42.1664 28.2292 42.9255 28.2292C43.7066 28.2292 43.9183 29.4261 43.9183 30.0979C43.9183 30.5761 44.1733 30.7987 43.5095 30.7987C43.0326 30.7987 42.2918 30.8554 41.8744 30.6235C41.2398 30.2709 39.7401 30.5651 39.013 30.5651C38.1695 30.5651 37.3927 30.6819 36.5603 30.6819C36.2132 30.6819 35.884 30.9121 35.8596 30.4483C35.8304 29.8944 35.626 29.3879 35.626 28.8132" stroke="black" stroke-linecap="round" stroke-linejoin="round"/>
<path d="M46.2542 28.346C46.3234 28.7011 46.3659 29.4815 46.5461 29.8059C46.7181 30.1154 46.5174 30.5228 46.611 30.8506C46.8058 31.5322 48.0529 31.149 48.6354 31.149C49.0679 31.149 53.229 31.4717 53.2617 30.9155C53.2862 30.4995 53.4415 29.0972 53.0865 28.8132C52.7785 28.5667 53.0338 28.346 52.5026 28.346C52.1522 28.346 51.8018 28.346 51.4514 28.346C50.7322 28.346 49.8294 28.4792 49.174 28.2033C48.4953 27.9175 47.8129 27.8788 47.0717 27.8788" stroke="black" stroke-linecap="round" stroke-linejoin="round"/>
<path d="M32.9398 48.2008C34.2033 47.7964 35.5726 47.9583 36.8329 47.5C37.8691 47.1232 39.043 47.0416 40.116 46.7733C40.6 46.6523 41.1378 46.5657 41.6343 46.5657C42.2243 46.5657 42.8574 46.2719 43.4511 46.2153C43.9253 46.1702 44.3162 45.9817 44.7942 45.9817C45.203 45.9817 45.6118 45.9817 46.0206 45.9817C46.8948 45.9817 47.8946 45.8474 48.7068 46.1894C49.1335 46.369 49.7595 46.4927 50.2251 46.5592C50.6593 46.6212 51.0641 46.8715 51.5098 46.9161C53.3142 47.0965 55.2192 48.0116 56.7655 48.7848" stroke="black" stroke-linecap="round" stroke-linejoin="round"/>
<path d="M45.203 46.4489C45.203 47.6728 45.3198 48.9006 45.3198 50.0695" stroke="black" stroke-linecap="round" stroke-linejoin="round"/>
<path d="M56.7655 48.7848C57.1139 48.9207 57.4694 49.0194 57.8166 49.1351" stroke="black" stroke-linecap="round" stroke-linejoin="round"/>
<path d="M35.8596 35.12C37.162 34.58 38.4506 34.1456 39.8046 33.7444C41.2664 33.3113 43.0578 33.6657 44.5022 33.978C47.9004 34.7128 51.5179 34.3649 54.6632 35.9376" stroke="black" stroke-linecap="round" stroke-linejoin="round"/>
<path d="M34.4581 38.9742C35.3362 38.9742 36.2143 38.9742 37.0924 38.9742C37.5942 38.9742 38.2299 39.0737 38.6626 38.8574" stroke="black" stroke-linecap="round" stroke-linejoin="round"/>
<path d="M35.1588 41.4268C35.9443 41.4268 36.662 41.5436 37.4363 41.5436C37.7425 41.5436 38.7845 41.6707 38.8962 41.894" stroke="black" stroke-linecap="round" stroke-linejoin="round"/>
<path d="M35.626 43.8795C36.6312 44.2011 37.5042 44.3466 38.5458 44.3466" stroke="black" stroke-linecap="round" stroke-linejoin="round"/>
<path d="M40.1809 38.507C40.8817 38.507 41.5824 38.507 42.2832 38.507C42.8997 38.507 43.5266 38.7406 44.1519 38.7406C44.8078 38.7406 45.443 38.839 46.0854 38.8574C46.3767 38.8657 47.4074 38.7113 47.5389 38.9742" stroke="black" stroke-linecap="round" stroke-linejoin="round"/>
<path d="M42.2832 40.7261C43.7852 40.7261 45.1866 41.1701 46.6629 41.4268C47.2162 41.5231 47.7308 41.5436 48.2915 41.5436C48.4956 41.5436 49.3762 41.5436 48.7068 41.5436" stroke="black" stroke-linecap="round" stroke-linejoin="round"/>
<path d="M41.9328 43.1787C44.0807 43.1787 46.2283 43.6459 48.3564 43.6459" stroke="black" stroke-linecap="round" stroke-linejoin="round"/>
<path d="M49.9915 38.7406C50.8446 38.5741 51.3068 39.091 52.0938 39.091" stroke="black" stroke-linecap="round" stroke-linejoin="round"/>
<path d="M50.8091 41.31C51.2656 41.31 51.6659 41.2842 52.0938 41.4268" stroke="black" stroke-linecap="round" stroke-linejoin="round"/>
<path d="M50.1083 43.6459C50.6569 43.6459 51.0988 43.7622 51.6266 43.8795C52.0155 43.9659 52.2762 44.3466 52.6777 44.3466" stroke="black" stroke-linecap="round" stroke-linejoin="round"/>
<path d="M55.0136 39.4413C55.3163 39.5004 55.5771 39.5479 55.8312 39.6749" stroke="black" stroke-linecap="round" stroke-linejoin="round"/>
<path d="M55.2472 41.894C55.4422 42.0358 55.7275 42.1539 55.8312 42.3612" stroke="black" stroke-linecap="round" stroke-linejoin="round"/>
<path d="M54.8968 44.8138C55.1447 44.9941 55.5147 45.281 55.8311 45.281" stroke="black" stroke-linecap="round" stroke-linejoin="round"/>
<path d="M35.3924 35.8208C35.471 36.2236 35.6971 36.6001 35.7428 36.9887C35.7673 37.1973 36.3334 37.1055 36.5019 37.1055C37.0664 37.1055 37.6309 37.1055 38.1954 37.1055C38.4663 37.1055 38.7426 37.1214 39.013 37.1055C39.1937 37.0949 39.1873 36.4975 39.0714 36.4047C38.8451 36.2237 38.5458 34.9645 38.5458 34.6528" stroke="black" stroke-linecap="round" stroke-linejoin="round"/>
</svg>
